<?xml version="1.0" encoding="utf-8"?>
<!-- Generator: Adobe Illustrator 26.2.1, SVG Export Plug-In . SVG Version: 6.00 Build 0)  -->
<svg version="1.1" id="mask-opening" xmlns="http://www.w3.org/2000/svg" xmlns:xlink="http://www.w3.org/1999/xlink" x="0px"
	 y="0px" viewBox="0 0 1920 560" enable-background="new 0 0 1920 560" xml:space="preserve">
<path fill="#FFFFFF" d="M0,9.93c44.37-34.87,73.95,36.19,120,0c44.37-34.87,73.95,36.19,120,0c44.37-34.87,73.95,36.19,120,0
	c44.37-34.87,73.95,36.19,120,0c44.37-34.87,73.95,36.19,120,0c44.37-34.87,73.95,36.19,120,0c44.37-34.87,73.95,36.19,120,0
	c44.37-34.87,73.95,36.19,120,0c44.37-34.87,73.95,36.19,120,0c44.37-34.87,73.95,36.19,120,0c44.37-34.87,73.95,36.19,120,0
	c44.37-34.87,73.95,36.19,120,0c44.37-34.87,73.95,36.19,120,0c44.37-34.87,73.95,36.19,120,0c44.37-34.87,73.95,36.19,120,0
	c44.37-34.87,73.95,36.19,120,0V560H0V9.93z"/>
</svg>
