<?xml version="1.0" encoding="utf-8"?>
<!-- Generator: Adobe Illustrator 26.2.1, SVG Export Plug-In . SVG Version: 6.00 Build 0)  -->
<svg version="1.1" baseProfile="tiny" id="wave-03" xmlns="http://www.w3.org/2000/svg" xmlns:xlink="http://www.w3.org/1999/xlink"
	 x="0px" y="0px" viewBox="0 0 400 400" overflow="visible" xml:space="preserve">
<g>
	<path fill="#ACD9E5" d="M176.58,399.25c-25.31,0-46.82-4.24-65.75-12.96c-21.76-10.03-39.32-26.95-56.88-44.88
		c-18.13-18.52-32.29-40.17-42.06-64.36C-2.04,242.58-2.9,205.77,9.12,157.68c12.84-51.39,36.12-89.77,69.2-114.07
		c13.77-10.12,36.01-23.41,51.85-29.25c24.88-9.16,47.95-13.62,70.53-13.62c12.47,0,24.92,1.3,38.05,3.97
		c48.87,9.94,85.73,41.99,108.04,67.13c3.13,3.53,6.41,7.02,9.88,10.71c12.72,13.56,25.88,27.58,32.72,44.49
		c14.49,35.84,10.35,75.6,4.38,109.76c-8.37,47.94-32.57,91.92-66.39,120.66c-13.47,11.45-31.98,25.16-55.75,29.61l-1.74,0.33
		C238.8,393.24,206.66,399.25,176.58,399.25z"/>
	<path fill="#3C797F" d="M200.7,1.5c12.42,0,24.81,1.29,37.9,3.95c48.67,9.9,85.39,41.84,107.62,66.89
		c3.14,3.54,6.42,7.03,9.89,10.73c12.68,13.51,25.79,27.47,32.57,44.26c14.42,35.66,10.28,75.29,4.34,109.35
		c-8.34,47.77-32.45,91.59-66.13,120.22c-13.4,11.39-31.81,25.03-55.4,29.44l-1.74,0.32c-31.05,5.81-63.17,11.82-93.17,11.82
		c-25.2,0-46.61-4.22-65.44-12.9C89.5,375.63,72,358.76,54.49,340.88c-18.06-18.45-32.16-40.02-41.91-64.12
		c-13.87-34.31-14.72-70.98-2.74-118.9c5.96-23.87,14.21-45.07,24.5-63.01c11.84-20.64,26.79-37.68,44.42-50.63
		c13.73-10.08,35.89-23.33,51.67-29.15C155.57,5.81,177.9,1.5,200.7,1.5L200.7,1.5 M200.7,0c-23.14,0-46,4.54-70.79,13.67
		c-16.37,6.03-38.62,19.49-52.04,29.35c-37.98,27.9-58.42,70.2-69.49,114.49c-9.8,39.2-13.5,79.48,2.81,119.83
		c10.04,24.83,24.54,46.55,42.22,64.6c17.18,17.55,35.1,34.9,57.1,45.03c20.77,9.57,42.99,13.03,66.07,13.03
		c30.69,0,62.9-6.13,95.18-12.17c22.02-4.12,39.96-16.06,56.1-29.78c35.74-30.38,58.74-75.83,66.64-121.11
		c6.15-35.21,9.97-74.58-4.42-110.17c-8.75-21.65-28.04-38.87-42.73-55.42C318.31,38.63,281.2,12.59,238.9,3.98
		C225.85,1.33,213.24,0,200.7,0L200.7,0z"/>
</g>
<path fill="#3C797F" d="M205.39,30.87v1.5c10.19,0,20.32,1.02,30.98,3.13c41.02,8.08,71.98,34.42,90.72,55.1
	c2.51,2.76,5.11,5.49,7.86,8.37c10.96,11.49,22.29,23.38,28.3,37.67c3.31,7.88,5.74,16.45,7.21,25.47
	c3.6,21.86,1.05,44.84-2.24,66.42c-3.35,21.97-10.55,43.22-20.83,61.47c-9.07,16.08-21.47,30.96-35.88,43.04
	c-11.37,9.57-26.97,21.05-46.87,24.92c-29.55,5.76-54.1,10.17-78.48,10.17c-13.41,0-25.33-1.38-36.45-4.21
	c-7.17-1.81-14.09-4.25-20.56-7.28c-18.97-8.85-34.67-24.19-47.9-37.87c-14.89-15.33-26.57-33.25-34.69-53.26
	c-14.66-36.11-9.29-71.65-2.98-98.57c5.77-24.58,13.58-44.5,23.87-60.91c9.38-14.93,21.17-27.65,35.04-37.8
	c11.09-8.12,29.37-19.21,43.3-24.35c21-7.74,40.49-11.5,59.58-11.5L205.39,30.87 M205.39,30.87c-19.66,0-39.1,3.86-60.1,11.6
	c-13.82,5.1-32.36,16.26-43.67,24.54C87.18,77.57,75.3,90.72,66.2,105.22c-11.65,18.57-19.03,39.89-24.06,61.37
	c-7.63,32.51-10.56,65.98,3.05,99.48c8.38,20.63,20.41,38.72,35.01,53.74c14.37,14.87,29.74,29.51,48.34,38.19
	c6.8,3.17,13.76,5.59,20.83,7.37c11.89,3.03,24.21,4.25,36.81,4.25c25.46,0,52.09-4.99,78.77-10.19
	c18.55-3.61,33.79-13.66,47.55-25.24c14.46-12.11,26.93-26.97,36.22-43.45c10.86-19.27,17.78-40.78,21.01-61.98
	c3.26-21.37,5.91-44.54,2.24-66.89c-1.43-8.74-3.77-17.4-7.31-25.81c-7.65-18.17-23.93-32.72-36.44-46.47
	c-24.56-27.09-56.1-48.58-91.54-55.56C226.01,31.92,215.68,30.87,205.39,30.87L205.39,30.87z"/>
<path fill="#3C797F" d="M201.14,76.86c12.09,0,23.63,1.43,34.3,4.25c13.8,3.66,28.16,10.78,41.54,20.6
	c9.54,6.99,21.36,16.86,28.23,31.16c14.04,29.13,26.58,57.69,25.83,86.9c-0.15,5.89-0.8,11.64-1.94,17.09
	c-3.35,16.09-12.15,31.19-20.31,43.85c-8.95,13.88-20.32,25.84-33.78,35.55c-10.44,7.53-22.04,12.87-35.47,16.32
	c-10.98,2.82-23.02,4.37-37.89,4.86c-3.14,0.1-6.2,0.16-9.1,0.16c-17.49,0-32.08-1.95-44.58-5.95
	c-13.3-4.26-26.16-11.37-37.19-20.54c-8.19-6.79-20.01-18.5-26.62-28.15c-14.88-21.74-22.4-42.9-23.69-66.59
	c-1.42-25.4,7.05-53.5,23.85-79.13c1.46-2.23,2.9-4.51,4.42-6.93c6.5-10.32,13.86-22.02,23.79-29.67
	c5.38-4.14,11.41-7.74,17.94-10.7c15.45-7.07,32.36-9.56,51.28-11.87C188.25,77.26,194.77,76.86,201.14,76.86 M201.14,75.36
	c-6.61,0-13.17,0.42-19.57,1.21c-17.01,2.08-35.43,4.53-51.72,12c-6.36,2.89-12.5,6.46-18.23,10.88
	c-12.4,9.55-20.55,24.75-28.55,36.96c-15.6,23.81-25.65,52.04-24.09,80.04c1.32,24.36,8.96,45.47,23.95,67.36
	c6.56,9.58,18.4,21.41,26.9,28.46c11.24,9.35,24.34,16.54,37.69,20.82c14.35,4.59,29.8,6.02,45.04,6.02c3.06,0,6.11-0.06,9.15-0.16
	c25.71-0.86,51.46-5.08,74.18-21.46c14.01-10.11,25.44-22.43,34.17-35.95c8.83-13.68,17.2-28.44,20.52-44.35
	c1.22-5.84,1.83-11.64,1.97-17.35c0.76-29.47-12.03-58.65-25.98-87.59c-6.44-13.4-17.12-23.22-28.7-31.72
	c-12.58-9.23-26.98-16.84-42.05-20.84C224.52,76.67,212.76,75.36,201.14,75.36L201.14,75.36z"/>
<path fill="#3C797F" d="M202.58,101.58c5.23,0,10.58,0.47,15.9,1.4c18.76,3.21,37.8,13.68,53.6,29.5c1.07,1.07,2.18,2.16,3.31,3.27
	c6.85,6.73,14.61,14.36,18.94,23.21c2.2,4.52,3.95,9.42,5.19,14.59c2.84,11.85,1.93,24.34,1.04,36.43l-0.19,2.61
	c-1.12,15.62-4.96,29.93-11.09,41.39c-4.98,9.27-13.28,18.62-24.68,27.79c-6.96,5.6-16.44,12.36-28.12,14.97
	c-12.09,2.73-27.92,5.87-43.04,5.87c-9.41,0-17.78-1.15-25.58-3.52c-4.32-1.31-8.41-2.91-12.16-4.75
	c-9.35-4.57-18.44-11.81-28.64-22.78c-8.09-8.71-14.48-18.67-19.01-29.62c-3.5-8.47-5.36-17.41-5.67-27.33
	c-0.25-8,0.5-16.58,2.35-27.01c2.18-12.26,5.67-27.95,13.42-40.63c5.5-8.97,13.78-17.7,23.32-24.58
	c6.24-4.53,16.72-10.8,24.99-13.86C179.11,103.86,190.93,101.58,202.58,101.58L202.58,101.58 M202.58,100.08
	c-11.99,0-23.96,2.36-36.64,7.06c-8.21,3.04-18.67,9.2-25.35,14.05c-9.38,6.77-17.96,15.63-23.72,25.01
	c-7.5,12.27-11.12,27.06-13.62,41.15c-3.18,17.89-4.28,36.58,3.41,55.18c4.76,11.5,11.45,21.61,19.3,30.06
	c8.29,8.92,17.95,17.67,29.08,23.11c4.1,2.01,8.27,3.59,12.39,4.83c8.4,2.55,17.11,3.58,26.01,3.58c14.13,0,28.76-2.61,43.37-5.91
	c10.94-2.45,20.2-8.4,28.73-15.26c9.79-7.88,19.22-17.36,25.06-28.25c6.93-12.94,10.25-27.82,11.27-41.99
	c0.91-12.7,2.23-26.54-0.89-39.49c-1.2-5.01-2.92-10.02-5.3-14.89c-5.16-10.55-14.87-19.21-22.54-26.88
	c-14.76-14.77-33.97-26.43-54.41-29.92C213.3,100.56,207.94,100.08,202.58,100.08L202.58,100.08z"/>
<path fill="#3C797F" d="M206.19,128.61v1.5c2.8,0,5.62,0.19,8.39,0.58c12.25,1.7,25.23,7.92,35.61,17.08
	c4.89,4.32,11.59,10.23,15.5,17c1.68,2.91,3.1,6.05,4.22,9.33c2.31,6.74,2.32,14.18,2.33,21.37c0,1.47,0,2.93,0.03,4.37
	c0.13,8.49-0.87,20.87-6.36,31.67c-4.14,8.12-12.07,14.87-19.28,20.41c-7.08,5.43-12.96,8.57-19.08,10.17
	c-9.93,2.63-18.53,3.9-26.3,3.9c-7.24,0-13.71-1.08-19.79-3.3c-2.97-1.08-5.62-2.24-8.12-3.53c-6.77-3.5-13.63-8.99-19.3-15.46
	c-4.76-5.43-8.6-11.53-11.41-18.15c-5.04-11.86-4.52-23.8-3.5-32.87c1.2-10.75,3.05-21.93,8.34-30.8
	c3.72-6.22,10.15-12.85,17.66-18.19c4.88-3.5,11.2-6.94,16.1-8.77c8.66-3.22,16.83-4.79,24.96-4.79L206.19,128.61 M206.19,128.61
	c-8.32,0-16.77,1.64-25.48,4.88c-5.49,2.04-12.02,5.78-16.45,8.95c-6.94,4.94-13.94,11.73-18.08,18.64
	c-5.5,9.23-7.36,20.85-8.54,31.41c-1.2,10.71-1.21,22.27,3.61,33.63c3,7.05,7.07,13.32,11.66,18.55
	c5.31,6.06,12.23,11.92,19.74,15.8c2.8,1.45,5.61,2.63,8.29,3.61c6.56,2.4,13.36,3.39,20.31,3.39c8.76,0,17.74-1.59,26.68-3.95
	c7.25-1.89,13.62-5.83,19.61-10.43c7.56-5.81,15.52-12.72,19.7-20.92c5.03-9.89,6.69-21.57,6.52-32.37
	c-0.13-8.47,0.44-17.81-2.43-26.2c-1.09-3.19-2.52-6.44-4.34-9.59c-3.96-6.85-10.47-12.66-15.81-17.37
	c-9.97-8.8-23.25-15.62-36.39-17.44C211.93,128.8,209.07,128.61,206.19,128.61L206.19,128.61z"/>
<path fill="#3C797F" d="M196.61,164.25v1.5c0.13,0,0.25,0,0.38,0c5.66,0.08,12.75,2,17.66,4.76c4.33,2.44,9.13,7.63,11.97,11.7
	c1.89,2.71,2.54,6.14,3.16,9.45c0.18,0.97,0.37,1.97,0.59,2.93c1.73,7.73,1.12,15.68-1.68,21.8c-2.3,5.02-8.25,9.13-13.5,12.75
	l-0.33,0.23c-7.24,5-14.34,7.53-21.09,7.53c-4.35,0-8.53-1.09-12.4-3.23c-4.15-2.29-11.08-6.13-14.09-10.42
	c-3.3-4.73-7.04-12.9-7.57-18.4c-0.78-8.13,0.41-15.71,3.28-20.79c2.39-4.24,7.76-8.86,11.98-11.78c5.58-3.85,14.48-6.54,21.64-6.54
	L196.61,164.25 M196.6,164.25c-7.01,0-16.38,2.58-22.49,6.8c-4.5,3.1-9.93,7.83-12.44,12.28c-3.5,6.2-4.14,14.62-3.46,21.67
	c0.55,5.73,4.29,14.04,7.83,19.11c3.15,4.51,10.07,8.38,14.59,10.88c4.25,2.35,8.67,3.42,13.13,3.42c7.38,0,14.88-2.92,21.94-7.79
	c5.36-3.7,11.83-8.08,14.35-13.59c3.13-6.84,3.44-15.35,1.78-22.75c-0.96-4.27-1.32-9.1-3.98-12.91
	c-3.09-4.42-8.04-9.65-12.46-12.14c-5.14-2.9-12.52-4.87-18.38-4.96C196.87,164.25,196.74,164.25,196.6,164.25L196.6,164.25z"/>
</svg>
