<?xml version="1.0" encoding="utf-8"?>
<!-- Generator: Adobe Illustrator 26.2.1, SVG Export Plug-In . SVG Version: 6.00 Build 0)  -->
<svg version="1.1" baseProfile="tiny" id="wave-02" xmlns="http://www.w3.org/2000/svg" xmlns:xlink="http://www.w3.org/1999/xlink"
	 x="0px" y="0px" viewBox="0 0 400 400" overflow="visible" xml:space="preserve">
<g>
	<path fill="#ACD9E5" d="M169.87,399.25c-9.34,0-17.19-1.01-24.69-3.19c-49.73-14.42-89-49.33-116.71-103.77
		c-1.48-2.92-3-5.83-4.52-8.75c-9.67-18.58-19.66-37.79-21.99-59.07c-2.86-26.1-0.65-52.24,6.56-77.7
		C18.81,110.5,40.85,80.44,80,49.34C120.57,17.1,161.35,0.75,201.18,0.75c1.25,0,2.49,0.02,3.75,0.05
		c13.61,0.34,26.15,4.53,39.43,8.97c2.85,0.95,5.73,1.91,8.66,2.85c37.99,12.16,73.42,31.72,102.43,56.58
		c33.93,29.06,41.14,79.8,43.64,120.75c1.17,19.22-4.22,37.67-9.93,57.21c-0.89,3.05-1.79,6.12-2.67,9.21
		c-12.31,43.4-28.89,73.59-52.19,95c-30.44,27.97-71.58,42.8-125.78,45.33c-5.3,0.25-10.66,0.73-15.84,1.19
		C185.21,398.56,177.48,399.25,169.87,399.25z"/>
	<path fill="#3C797F" d="M201.19,1.5c1.23,0,2.49,0.02,3.72,0.05c13.5,0.34,25.99,4.51,39.22,8.93c2.82,0.94,5.73,1.91,8.66,2.85
		c37.9,12.13,73.23,31.64,102.18,56.43c14.86,12.72,25.59,30.36,32.82,53.91c5.55,18.09,8.91,39.16,10.56,66.31
		c1.16,19.09-4.21,37.48-9.9,56.96c-0.88,3.01-1.79,6.12-2.67,9.22c-12.27,43.26-28.78,73.34-51.98,94.65
		c-15.94,14.65-35.39,25.88-57.81,33.4c-19.74,6.62-42.45,10.57-67.5,11.74c-5.31,0.25-10.68,0.73-15.87,1.19
		c-7.46,0.67-15.17,1.35-22.75,1.35c-9.27,0-17.05-1-24.48-3.16c-25.93-7.52-49.33-20.9-69.56-39.78
		c-18.1-16.89-33.81-38.29-46.7-63.61c-1.49-2.92-3.03-5.89-4.52-8.75c-9.63-18.52-19.59-37.67-21.91-58.8
		c-2.85-26-0.65-52.05,6.54-77.42c10.24-36.12,32.21-66.05,71.22-97.06c18.87-15,37.89-26.65,56.53-34.63
		C158.38,6.14,179.97,1.5,201.19,1.5L201.19,1.5 M201.18,0c-45.63,0-86.56,20.87-121.65,48.75C47.62,74.11,19.84,104.11,7.8,146.57
		c-7.41,26.13-9.38,52.54-6.59,77.99c2.71,24.72,15.51,46.3,26.59,68.07c24.38,47.89,61.92,88.13,117.17,104.15
		c8.38,2.43,16.66,3.22,24.9,3.22c12.93,0,25.76-1.94,38.69-2.55c46.91-2.19,92.08-14.13,126.25-45.53
		c26.57-24.42,41.78-57.88,52.41-95.35c6.46-22.79,13.98-44.29,12.62-66.68c-2.69-44.25-11-93.1-43.9-121.28
		c-28.89-24.75-63.89-44.31-102.69-56.72c-16.63-5.32-31.64-11.43-48.3-11.85C203.69,0.02,202.44,0,201.18,0L201.18,0z"/>
</g>
<path fill="#3C797F" d="M186.24,36.15c7.84,0,15.63,1.09,23.88,2.24c2.23,0.31,4.54,0.63,6.85,0.93
	c10.91,1.41,21.62,3.54,31.84,6.33c20.85,5.69,41.14,14.5,60.29,26.2c13.69,8.29,24.76,21.03,33.85,38.97
	c7.01,13.84,12.66,30.34,17.79,51.94c3.7,15.48,2.01,31.36,0.21,48.16c-0.26,2.43-0.52,4.87-0.77,7.33
	c-3.56,35.51-12.02,61.6-26.63,82.09c-0.56,0.78-1.14,1.57-1.71,2.34c-19.97,26.51-50.82,44.72-94.32,55.65
	c-4.4,1.11-8.81,2.42-13.07,3.68c-11,3.27-22.38,6.65-34.22,6.65c-1.66,0-3.32-0.07-4.94-0.2c-23.23-1.84-45.06-9.22-64.88-21.94
	c-16.48-10.57-32.41-25.46-46.07-43.06c-0.55-0.7-1.09-1.41-1.63-2.11c-1.67-2.19-3.4-4.41-5.06-6.56
	c-10.9-14.04-22.17-28.56-27.11-45.79c-5.85-20.56-7.62-41.93-5.26-63.5c1.82-16.62,6.8-32.39,15.21-48.2
	c6.91-13,16.01-25.85,28.63-40.44c14.25-16.48,28.68-29.61,42.89-39.02c16.79-11.12,34.37-17.97,53.74-20.93
	C179.06,36.4,182.5,36.15,186.24,36.15 M186.24,34.65c-3.57,0-7.14,0.22-10.74,0.77c-20.05,3.07-37.95,10.31-54.34,21.17
	C105.12,67.2,90.62,81.23,77.96,95.88c-21.87,25.3-40.24,53.46-44.19,89.46c-2.43,22.19-0.45,43.85,5.31,64.08
	c5.79,20.19,19.88,36.39,32.43,52.85c0.54,0.71,1.09,1.42,1.64,2.12c13.08,16.85,28.84,32.11,46.45,43.41
	c19.26,12.36,41.11,20.24,65.58,22.17c1.7,0.14,3.39,0.2,5.06,0.2c16.67,0,31.88-6.42,47.66-10.38
	c37.44-9.41,72.14-25.65,95.15-56.2c0.59-0.78,1.17-1.57,1.74-2.37c16.66-23.37,23.81-51.92,26.9-82.81
	c1.95-19.44,4.83-37.98,0.52-55.99c-8.37-35.32-21.94-73.46-52.32-91.85c-18.48-11.29-38.88-20.42-60.67-26.36
	c-10.4-2.84-21.11-4.95-32.04-6.37C206.44,36.45,196.35,34.65,186.24,34.65L186.24,34.65z"/>
<path fill="#3C797F" d="M187.15,66.66v1.5h0c2.56,0,5.1,0.04,7.79,0.09c1.65,0.03,3.31,0.06,4.98,0.07
	c9.6,0.09,18.94,0.87,27.76,2.33c17.31,2.86,34.81,8.68,53.5,17.82c27.16,13.27,41.26,44.53,50.5,70.28
	c4.6,12.81,4.76,26.44,4.93,40.88c0.02,1.73,0.04,3.46,0.07,5.2c0.47,29.71-3.99,52.2-14.05,70.76c-0.38,0.71-0.78,1.41-1.18,2.11
	c-13.6,23.61-36.45,41.44-71.9,56.12c-3.65,1.51-7.29,3.2-10.81,4.83c-10.3,4.78-20.95,9.72-32.69,10.54
	c-2.91,0.2-5.83,0.31-8.7,0.31c-17.27,0-33.95-3.74-49.57-11.11c-15.21-7.18-31-18.67-44.44-32.34c-0.54-0.55-1.09-1.1-1.63-1.66
	c-1.68-1.73-3.42-3.49-5.1-5.19c-10.97-11.08-22.31-22.53-28.09-36.88c-6.56-16.27-9.81-33.75-9.67-51.97
	c0.25-31.07,14.31-56.46,28.03-77.2c10.97-16.58,21.98-29.71,32.71-39.03c12.96-11.26,27.66-18.98,44.93-23.6
	c7.84-2.1,15.84-2.38,22.63-2.38L187.15,66.66 M187.15,66.66c-7.85,0-15.45,0.4-23.02,2.43C146.71,73.75,131.92,81.44,118.6,93
	c-12.64,10.98-23.77,25.43-32.97,39.34c-15.29,23.11-28.04,48-28.28,78.01c-0.14,18.55,3.24,36.31,9.78,52.54
	c6.8,16.88,20.94,29.61,33.52,42.55c0.54,0.56,1.09,1.12,1.64,1.67c12.91,13.13,28.64,24.98,44.87,32.64
	c15.63,7.38,32.41,11.26,50.21,11.26c2.91,0,5.84-0.1,8.81-0.31c16.05-1.13,29.59-9.53,43.96-15.49
	c29.71-12.3,56.68-29.09,72.62-56.76c0.41-0.71,0.81-1.42,1.2-2.14c11.43-21.11,14.64-45.58,14.23-71.5
	c-0.26-16.32,0.16-31.96-5.08-46.56c-10.15-28.28-24.75-58.18-51.25-71.13c-16.77-8.19-34.84-14.8-53.92-17.95
	c-9.15-1.51-18.51-2.26-27.99-2.35C195.58,66.77,191.33,66.66,187.15,66.66L187.15,66.66z"/>
<path fill="#3C797F" d="M207.09,111.36v1.5c4.63,0,9.56,0.2,15.07,0.6c21.38,1.57,39.03,17.63,52.03,31.44
	c6.94,7.37,11.19,16.6,15.7,26.37l1.02,2.21c8.85,19.15,12.5,35.16,11.48,50.38c-0.04,0.57-0.09,1.15-0.14,1.72
	c-0.98,10.43-4.2,20.57-9.82,30.98c-4.63,8.56-10.82,17.23-19.49,27.29c-1.95,2.27-3.85,4.65-5.69,6.95
	c-5.5,6.89-11.18,14.01-18.78,18.61c-13.61,8.24-28.21,12.41-43.44,12.41c-12.6-0.01-27.67-3.05-41.32-8.36l-0.35-0.14
	c-0.44-0.17-0.87-0.34-1.31-0.51c-1.69-0.66-3.4-1.32-5.13-1.98c-11.31-4.33-23-8.8-31.24-17.09c-8.6-8.65-15.44-19.16-20.32-31.23
	c-7.37-18.24-6.72-36.41-3.48-58.09c2.43-16.23,5.7-28.81,10.01-38.43c5.36-11.98,13.02-21.51,24.84-30.88
	c6.41-5.08,13.8-8.31,21.62-11.73l1.92-0.84c6.73-2.97,13.37-5.24,19.75-6.77c8.13-1.95,16.99-2.89,27.09-2.89V111.36
	 M207.09,111.36c-9.17,0-18.4,0.77-27.43,2.93c-6.79,1.63-13.47,3.98-20.01,6.86c-8.61,3.78-16.78,7.14-23.86,12.76
	c-11.22,8.9-19.48,18.48-25.28,31.44c-5.26,11.76-8.25,26.33-10.12,38.83c-2.9,19.38-4.36,39.25,3.58,58.87
	c4.93,12.18,11.9,22.93,20.65,31.73c9.74,9.8,23.99,14.34,36.89,19.41c0.56,0.22,1.11,0.43,1.67,0.65
	c12.97,5.04,28.39,8.46,41.86,8.46c0.02,0,0.03,0,0.04,0c15.66,0,30.43-4.31,44.17-12.63c10.39-6.29,16.99-16.76,24.83-25.86
	c15.05-17.46,27.52-36.32,29.67-59.11c0.05-0.59,0.1-1.17,0.14-1.75c1.16-17.22-3.84-34.29-11.61-51.11
	c-4.91-10.6-9.35-20.86-16.98-28.98c-14.47-15.38-32.16-30.37-53.01-31.91C217.26,111.59,212.18,111.36,207.09,111.36L207.09,111.36
	z"/>
<path fill="#3C797F" d="M199.26,133.28v1.5c5.09,0,10.18,0.49,14.96,1c12.8,1.35,23.64,10.63,30.67,17.49
	c4.55,4.43,7.65,9.85,11.23,16.47c5.84,10.83,8.77,20.58,8.94,29.8c0.01,0.34,0.01,0.68,0,1.02c-0.11,13.69-6.62,25.65-13.64,36.53
	c-0.97,1.5-1.91,3.04-2.83,4.53c-3.53,5.75-6.87,11.19-11.7,15.14c-8.62,7.06-18.24,11.05-28.59,11.85
	c-1.19,0.09-2.46,0.14-3.78,0.14c-7.77,0-17.16-1.58-25.12-4.24l-0.62-0.2l-0.56-0.19c-1.11-0.37-2.24-0.74-3.39-1.11
	c-8.2-2.65-16.69-5.4-22.35-10.92c-4.97-4.85-9-10.94-11.96-18.12c-4.39-10.66-4.19-21.67-3.52-33.91
	c0.44-8.02,1.61-19.34,4.63-27.68c3.52-9.69,9.07-15.67,16.89-22.18c4.64-3.86,9.99-6.67,15.07-9.22c4.49-2.27,8.68-3.86,12.81-4.86
	c3.82-0.92,8.02-1.37,12.84-1.37V133.28 M199.26,133.28c-4.46,0-8.88,0.37-13.19,1.42c-4.51,1.09-8.89,2.83-13.13,4.97
	c-5.54,2.78-10.77,5.59-15.36,9.41c-7.98,6.64-13.73,12.88-17.34,22.82c-3.03,8.35-4.25,19.6-4.72,28.11
	c-0.63,11.38-1.07,23.18,3.63,34.57c2.95,7.14,7.03,13.49,12.3,18.62c6.73,6.56,17.17,9.33,26.31,12.38
	c0.39,0.13,0.79,0.26,1.18,0.39c7.67,2.56,17.35,4.32,25.6,4.32c1.34,0,2.65-0.05,3.9-0.14c11.14-0.87,20.9-5.21,29.42-12.19
	c6.35-5.2,10.25-12.91,14.84-20.02c7.52-11.67,13.77-23.59,13.87-37.34c0-0.35,0-0.71,0-1.06c-0.19-10.45-3.82-20.68-9.12-30.49
	c-3.35-6.2-6.63-12.09-11.5-16.84c-8.78-8.57-19.31-16.62-31.56-17.91C209.4,133.76,204.32,133.28,199.26,133.28L199.26,133.28z"/>
<path fill="#3C797F" d="M195.6,167.24L195.6,167.24c3.09,0,6.44,0.73,9.68,1.44c0.61,0.13,1.21,0.26,1.81,0.39
	c4.27,0.9,8.26,2.6,11.84,5.05c6.14,4.19,10.98,10.47,13.28,17.23c1.82,5.36,2.08,11.33,0.75,17.74
	c-3.78,18.26-13.68,24.45-21.32,26.43c-1.93,0.5-4.56,0.76-7.63,0.76c-3.62,0-7.58-0.38-10.59-1.02c-0.66-0.14-1.35-0.28-2.04-0.42
	c-5.51-1.12-11.76-2.4-15.34-5.56c-4.58-4.04-6.21-10.71-7.78-17.17c-0.14-0.58-0.28-1.15-0.42-1.71c-1.19-4.8-1.3-13.21-0.23-18.38
	c1.39-6.73,4.58-9.69,9.41-14.17l0.61-0.57c4.18-3.88,8.91-8.28,14.32-9.63C193.06,167.38,194.25,167.24,195.6,167.24 M195.6,165.74
	c-1.38,0-2.72,0.13-4.02,0.46c-5.73,1.43-10.67,5.98-14.98,9.99c-5.18,4.82-8.92,8.03-10.47,15.53c-1.12,5.41-1.01,14.02,0.24,19.05
	c1.74,7,3.31,14.91,8.67,19.64c4.36,3.85,12,5.04,18.06,6.33c3.04,0.64,7.07,1.05,10.9,1.05c2.97,0,5.82-0.24,8.01-0.81
	c12.5-3.23,19.6-13.95,22.41-27.58c1.33-6.46,1.18-12.71-0.8-18.53c-2.46-7.22-7.53-13.67-13.86-17.98
	c-3.64-2.48-7.81-4.31-12.38-5.28C203.5,166.78,199.44,165.74,195.6,165.74L195.6,165.74z"/>
</svg>
