<?xml version="1.0" encoding="utf-8"?>
<!-- Generator: Adobe Illustrator 26.2.1, SVG Export Plug-In . SVG Version: 6.00 Build 0)  -->
<svg version="1.1" baseProfile="tiny" id="wave-01" xmlns="http://www.w3.org/2000/svg" xmlns:xlink="http://www.w3.org/1999/xlink"
	 x="0px" y="0px" viewBox="0 0 400 400" overflow="visible" xml:space="preserve">
<g>
	<path fill="#ACD9E5" d="M219.33,399.25c-31.71,0-64.79-9.79-81.68-15.63c-45.33-15.66-84.36-46.11-107.09-83.53
		c-6.22-10.25-9.11-21.44-12.16-33.28c-2.19-8.5-4.46-17.28-8.08-25.9c-10.18-24.23-12.28-51.56-6.24-81.23
		c5.2-25.53,16.24-51.44,31.95-74.92C49.14,65.15,68.32,50.7,88.47,36.42c20.81-14.75,44.06-25.14,69.1-30.87
		c13.93-3.19,28.15-4.8,42.27-4.8c26.04,0,51.81,5.38,76.6,16c42.66,18.27,77.42,50.25,97.88,90.05
		c7.71,14.99,17.2,38.72,20.43,55.06c7.82,39.59,5.53,72.65-7.4,107.22c-13.99,37.37-41.92,70.22-80.78,94.98
		c-3,1.91-6,3.88-9.18,5.97c-15.8,10.37-33.7,22.13-52.31,26.52C237.49,398.34,228.83,399.25,219.33,399.25z"/>
	<path fill="#3C797F" d="M199.83,0v1.5c25.94,0,51.61,5.36,76.3,15.94c42.49,18.2,77.13,50.05,97.51,89.7
		c7.69,14.95,17.15,38.59,20.36,54.86c7.79,39.44,5.51,72.38-7.37,106.81c-13.93,37.22-41.76,69.94-80.48,94.61
		c-3,1.91-6.01,3.89-9.19,5.98c-15.75,10.34-33.59,22.06-52.07,26.42c-7.52,1.77-16.12,2.67-25.57,2.67
		c-31.6,0-64.59-9.77-81.44-15.59c-45.17-15.6-84.05-45.93-106.69-83.21c-6.16-10.15-9.04-21.29-12.08-33.08
		c-2.2-8.52-4.47-17.33-8.11-26c-10.12-24.09-12.2-51.27-6.2-80.79C9.99,134.4,21,108.58,36.65,85.18
		C49.7,65.67,68.81,51.27,88.9,37.03c20.73-14.69,43.89-25.04,68.83-30.75c13.87-3.18,28.04-4.79,42.1-4.79L199.83,0 M199.83,0
		c-13.96,0-28.15,1.55-42.44,4.82c-25.7,5.88-49.07,16.6-69.36,30.99C68.31,49.79,48.66,64.51,35.4,84.34
		C6.23,127.97-12.32,188.94,9.63,241.2c8.55,20.35,9.44,41.42,20.29,59.28c24.02,39.55,64.68,69.06,107.49,83.85
		c24.81,8.57,55.12,15.67,81.93,15.67c9.16,0,17.93-0.83,25.91-2.71c22.38-5.28,43.35-20.88,61.72-32.59
		c36.32-23.14,66.17-55.52,81.08-95.35c13.09-34.98,15.22-68.22,7.44-107.63c-3.33-16.89-12.99-40.65-20.5-55.26
		c-21.26-41.35-56.89-72.68-98.26-90.39C252.64,5.74,226.67,0,199.83,0L199.83,0z"/>
</g>
<path fill="#3C797F" d="M203.22,38.54l0,1.5h0c2.11,0,4.1,0.06,5.91,0.18c32.15,2.09,57.38,10.82,81.8,28.31
	c23.14,16.53,41.61,41.15,53.39,71.21c1.68,4.29,3.25,8.75,4.65,13.26c0.77,2.47,1.57,4.96,2.41,7.58
	c4.89,15.21,10.44,32.46,9.91,48.52c-0.47,13.92-5.36,31.11-14.14,49.7c-5.36,11.32-12.27,23.14-19.97,34.17
	c-11.84,16.91-27.35,32.08-44.87,43.86c-13.36,9.01-29.14,15.92-46.89,20.54c-7.23,1.88-14.39,2.14-21.05,2.14
	c-2.17,0-4.41-0.03-6.57-0.06c-2.21-0.03-4.49-0.06-6.76-0.06c-4.07,0-9.46,0.09-15.09,0.8c-3.78,0.47-7.64,0.71-11.49,0.71
	c-18.67,0-37.7-5.4-56.57-16.06c-16.51-9.33-32.21-22.4-45.4-37.79c-5.57-6.51-10.52-14.31-15.13-23.87
	c-4.2-8.7-7.73-18.07-10.92-26.9c-6.95-19.22-10.08-39.42-9.31-60.05c0.65-16.51,3.72-32.77,8.87-47.04
	c5.87-16.29,15.15-32.61,26.82-47.18c23.48-29.31,55.35-49.64,89.73-57.25c10.59-2.34,27.27-4.7,40.65-4.7L203.22,38.54
	 M203.22,38.54c-13.2,0-29.81,2.27-40.97,4.74c-36.36,8.05-67.9,29.48-90.58,57.78c-11.25,14.04-20.82,30.28-27.06,47.61
	c-5.32,14.73-8.31,31-8.96,47.49c-0.8,21.3,2.58,41.77,9.4,60.62c6.62,18.32,13.89,36.71,26.33,51.23
	c24.97,29.15,62.79,54.38,103.11,54.38c3.87,0,7.77-0.23,11.67-0.72c5.05-0.63,10.01-0.79,14.91-0.79c4.49,0,8.93,0.13,13.32,0.13
	c7.23,0,14.35-0.35,21.42-2.19c16.67-4.34,32.83-10.96,47.35-20.75c17.56-11.81,33.28-27.14,45.26-44.24
	c7.16-10.25,14.25-22.03,20.1-34.39c7.91-16.75,13.75-34.64,14.28-50.29c0.63-19.04-7.01-39.29-12.39-56.6
	c-1.41-4.53-2.97-8.99-4.69-13.36c-11.18-28.52-29.29-54.29-53.92-71.88c-24.57-17.58-50.39-26.48-82.58-28.58
	C207.33,38.6,205.32,38.54,203.22,38.54L203.22,38.54z"/>
<path fill="#3C797F" d="M198.77,67.1c6.97,0,14.04,0.53,21.01,1.56c3.75,0.56,7.57,1.28,11.38,2.14c1.59,0.36,3.21,0.72,4.85,1.09
	c13.38,2.97,28.54,6.34,40.11,13.68c12.48,7.96,23.14,21.63,29.89,31.7c5.95,8.92,11.24,18.84,15.72,29.48
	c6.55,15.65,10.22,34.23,10.32,52.32c0.12,14.91-3.91,29.02-8.28,42.05c-2.32,6.91-6.02,12.96-9.95,19.37
	c-2.97,4.85-6.04,9.86-8.55,15.38c-6.76,14.9-18.29,27.58-34.28,37.66c-13.89,8.76-30.44,15.06-47.86,18.21
	c-4.36,0.79-8.89,1.17-13.85,1.17c-10.76,0-21.7-1.86-31.12-3.6c-15.93-2.94-30.94-8.87-44.6-17.63
	c-12.35-7.91-22.97-17.22-30.72-26.92c-11.37-14.2-18.3-30.02-22.11-40.79c-10.12-28.61-11.05-58.95-2.61-85.43
	c3.19-9.97,9.43-24.93,15.6-34.2c14.2-21.33,31.11-36.05,53.2-46.32C162.22,70.89,180.15,67.1,198.77,67.1L198.77,67.1 M198.77,65.6
	c-18.1,0-36.23,3.48-52.48,11.08c-22.16,10.3-39.37,25.15-53.82,46.85c-6.19,9.3-12.5,24.31-15.78,34.57
	c-9.1,28.55-7.03,59.09,2.63,86.38c5.05,14.27,12.62,29.08,22.36,41.23c8.3,10.39,19.43,19.78,31.08,27.25
	c14.22,9.11,29.55,14.96,45.13,17.84c10.41,1.92,20.96,3.62,31.39,3.62c4.74,0,9.46-0.35,14.12-1.19
	c32.79-5.92,68.52-24.27,83.24-56.73c5.7-12.58,14.38-22.44,18.55-34.89c4.59-13.71,8.47-27.8,8.35-42.54
	c-0.1-17.86-3.56-36.47-10.43-52.89c-4.12-9.79-9.42-20.08-15.86-29.73c-8.63-12.87-19.22-25.05-30.33-32.13
	c-13.22-8.39-30.77-11.63-45.43-14.97c-3.83-0.87-7.67-1.6-11.49-2.16C213.01,66.14,205.89,65.6,198.77,65.6L198.77,65.6z"/>
<path fill="#3C797F" d="M208.35,92.27c7.91,0,15.79,0.84,23.44,2.49c2.99,0.64,6.06,1.44,9.11,2.36l1.3,0.39
	c11.52,3.48,24.58,7.42,34.14,14.55c7.76,5.83,15.89,15.95,22.89,28.49c4.34,7.83,7.91,16.52,10.62,25.84
	c3.9,13.54,4.75,29.5,2.39,44.95c-1.53,10.3-6.48,19.68-11.26,28.74c-0.72,1.37-1.44,2.74-2.15,4.11c-2.44,4.7-5.57,8.85-8.88,13.25
	c-2.64,3.5-5.37,7.12-7.77,11.09c-6.29,10.43-15.88,18.96-28.5,25.34c-11.06,5.59-23.89,9.2-37.1,10.43
	c-1.68,0.16-3.44,0.24-5.21,0.24c-8.97,0-17.88-1.9-28.49-4.74c-11.86-3.18-22.82-8.5-32.59-15.82
	c-10.47-7.84-19.17-16.67-24.5-24.87c-6.38-9.77-11.88-23.11-15.07-36.62c-3.83-16.19-6.35-40.64,3.45-65.17
	c3.07-7.65,8.5-18.4,13.73-25.17c11.82-15.32,26.33-26.22,44.36-33.33C183.04,94.53,195.53,92.28,208.35,92.27L208.35,92.27
	 M208.35,90.77c-12.57,0-25.22,2.11-36.67,6.63c-17.76,7.01-32.69,17.88-44.99,33.81c-5.27,6.83-10.82,17.75-13.94,25.53
	c-8.49,21.27-8.58,44.66-3.51,66.07c2.9,12.24,8.11,26.13,15.28,37.09c6.14,9.44,15.62,18.34,24.86,25.25
	c10.25,7.68,21.51,12.96,33.11,16.07c9.51,2.55,19.22,4.79,28.88,4.79c1.79,0,3.57-0.08,5.35-0.24
	c25.11-2.34,53.02-13.72,66.75-36.48c5.29-8.77,12.19-15.74,16.69-24.42c5.52-10.65,11.77-21.21,13.57-33.32
	c2.25-14.72,1.75-31.06-2.43-45.58c-2.5-8.6-6.01-17.59-10.75-26.15c-6.24-11.17-14.48-22.33-23.3-28.96
	c-10.15-7.57-24.09-11.61-35.91-15.19c-3.08-0.93-6.16-1.73-9.23-2.39C224.44,91.64,216.41,90.77,208.35,90.77L208.35,90.77z"/>
<path fill="#3C797F" d="M202.63,127.52v1.5c0.98,0,1.91,0.03,2.75,0.09c10.98,0.8,22.17,4.85,32.36,11.69
	c10.39,6.98,19.61,18.59,24.67,31.04c0.76,1.86,1.46,3.84,2.09,5.89c2.42,7.93,4.83,17.13,4.35,25.21
	c-0.4,6.66-3.36,15.75-7.91,24.32c-2.92,5.5-6.69,10.6-11.54,15.61c-6.82,6.99-16.88,12.85-27.62,16.08
	c-2.4,0.72-5.08,1.07-8.2,1.07c-3.22,0-6.57-0.37-9.81-0.73c-2.31-0.25-4.69-0.52-7.03-0.65c-2.78-0.16-5.54-0.54-8.45-0.94
	c-2.59-0.36-5.27-0.73-7.98-0.93c-12.8-0.94-26.24-9.25-35.94-22.24c-3.98-5.33-6.36-11.89-8.17-17.62c-2.12-6.7-3-13.61-2.61-20.54
	c0.4-7.24,1.61-17.4,5.09-24.72c3.48-7.37,10.19-16.32,17.1-22.8c10.34-9.69,21.78-16.05,33.09-18.39
	c4.51-0.92,9.66-1.47,13.77-1.47L202.63,127.52 M202.63,127.52c-4.63,0-9.98,0.67-14.07,1.5c-13.05,2.7-24.56,10.09-33.81,18.77
	c-6.35,5.95-13.49,14.9-17.43,23.25c-3.45,7.26-4.79,17.25-5.23,25.28c-0.41,7.38,0.6,14.48,2.68,21.07
	c2.03,6.42,4.45,12.78,8.4,18.06c8.68,11.62,22.27,21.75,37.03,22.84c5.6,0.41,11.04,1.57,16.45,1.87
	c5.58,0.31,11.32,1.38,16.93,1.38c2.93,0,5.82-0.29,8.63-1.13c10.02-3.01,20.72-8.72,28.27-16.46c4.42-4.56,8.54-9.83,11.79-15.95
	c4.09-7.7,7.62-17.2,8.08-24.94c0.5-8.32-1.96-17.73-4.41-25.74c-0.63-2.08-1.35-4.09-2.13-6.02c-4.9-12.06-14.19-24.3-25.22-31.72
	c-9.73-6.55-21.12-11.07-33.08-11.95C204.58,127.55,203.63,127.52,202.63,127.52L202.63,127.52z"/>
<path fill="#3C797F" d="M201.33,158.83v1.5c0.63,0,1.26,0.03,1.86,0.08c4.76,0.43,11.06,3.38,15.37,5.99
	c5.75,3.49,11.92,10.7,14.68,17.15c2.19,5.12,3.31,12.28,2.8,17.82c-0.46,4.88-3.2,11.31-5.71,15.51c-2.04,3.41-4.74,6.31-8.49,9.13
	c-5.33,4.01-13.66,6.6-21.22,6.6l-0.16,0c-5.42-0.03-11.49-3.71-16.85-6.96l-0.34-0.2c-8.54-5.18-18.47-14.31-17.27-28.36
	c0.4-4.66,1.06-12.46,3.72-16.9c2.93-4.89,8.77-11.57,13.49-14.27c3.63-2.08,10.82-5.57,18.12-5.57V158.83 M201.33,158.83
	c-6.44,0-13.37,2.63-18.86,5.77c-4.93,2.82-10.9,9.56-14.04,14.8c-2.79,4.66-3.5,12.46-3.93,17.54
	c-1.08,12.69,6.43,22.76,17.99,29.77c5.48,3.32,12,7.36,17.96,7.39c0.05,0,0.11,0,0.16,0c7.37,0,16.18-2.43,22.12-6.9
	c3.45-2.59,6.52-5.62,8.88-9.56c2.74-4.58,5.45-11.15,5.92-16.14c0.54-5.8-0.64-13.24-2.91-18.55c-2.73-6.38-8.93-13.98-15.29-17.84
	c-4.59-2.79-11.01-5.75-16.02-6.2C202.67,158.86,202,158.83,201.33,158.83L201.33,158.83z"/>
</svg>
