<?xml version="1.0" encoding="UTF-8"?><svg id="a" xmlns="http://www.w3.org/2000/svg" viewBox="0 0 140 140"><defs><style>.b{fill:#3f3b05;}</style></defs><path class="b" d="M140,93.49c-7.19,2.84-14.87,4.45-22.66,4.45-14.3,0-28.02-5.72-33.74-14.3,19.21-5.79,38.9-15.32,56.4-26.77V0h-40.31c-4.89,34-13.1,55.75-25.23,68.2-4.57-2.86-6.29-6.86-8.01-20.59C61.87,15.6,49.29,.16,26.99,.16,17.31,.16,7.96,3.56,0,10.34v10.24c5.61-6.6,13.17-10.71,21.27-10.71,13.72,0,23.44,10.29,23.44,24.02,0,7.43,0,8.01-13.15,30.31q-10.87,18.87-11.44,20.01c-7.86-1.05-14.27-3.55-20.13-7.04v11.59c5.26,1.04,10.46,1.82,15.56,2.31-2.29,3.43-2.86,5.72-2.86,12.01,0,10.86,2.29,21.16,6.86,28.02,1.8,3.12,4.02,6.08,6.57,8.9h113.87v-46.51Z"/></svg>