<?xml version="1.0" encoding="UTF-8"?><svg id="a" xmlns="http://www.w3.org/2000/svg" viewBox="0 0 140 140"><defs><style>.b{fill:#3f3b05;}</style></defs><path class="b" d="M140,1.33c-4.23-.87-8.64-1.33-13.12-1.33-11.16,0-23.34,3.39-31.12,8.8-5.41,3.39-8.12,6.77-12.18,15.57C75.13,6.43,66,1.02,43,1.02,21.41,1.02,11.56,6.25,0,23.44v11.3c2.16-9.65,9.61-17.81,17.3-17.81s12.18,6.77,12.18,18.96v104.12h56.82V28.44c0-1.35,2.37-6.43,4.4-8.46,3.38-4.4,6.76-6.09,11.84-6.09,10.15,0,15.56,7.45,15.56,22v104.12h21.92V1.33Z"/></svg>