<?xml version="1.0" encoding="UTF-8"?><svg id="a" xmlns="http://www.w3.org/2000/svg" viewBox="0 0 140 140"><defs><style>.b{fill:#3f3b05;}</style></defs><path class="b" d="M72.22,24.1c0-8.43-2.3-16.85-6.57-24.1H0V61.03c7.24,4.66,15.89,7.35,25.24,7.35,26.46,0,46.98-19.44,46.98-44.28Z"/><path class="b" d="M55.48,140v-13.84c1.62-31.86,7.02-42.66,30.24-60.48,2.7-2.16,9.72-8.64,17.28-16.2V119.14c0,7.12-.53,14.13-1.48,20.86h38.47V0h-35.92c0,.11,0,.22,0,.34,0,22.14-4.32,41.58-10.8,50.22-9.18,11.88-32.4,22.68-62.1,28.08-12.26,2.36-22.67,5.23-31.18,8.53v52.83H55.48Z"/></svg>