<?xml version="1.0" encoding="UTF-8"?><svg id="a" xmlns="http://www.w3.org/2000/svg" viewBox="0 0 140 140"><defs><style>.b{fill:#3f3b05;}</style></defs><path class="b" d="M140,96.76l-36.48,.45h-4.91c-32.38,0-46.12-5.89-46.12-19.13,0-7.85,5.89-13.25,14.72-13.25,2.94,0,7.36,.49,12.27,.98,16.68,2.94,31.4,4.41,42.2,4.41,6.26,0,12.39-.44,18.32-1.26v-20.66c-.7,3.14-1.56,5.43-2.62,7.2-2.94,5.4-11.28,8.83-20.12,8.83-17.66,0-25.02-15.7-24.04-50.04V0H14.72c.13,23.79,11.46,38.93,42.19,56.49-23.55,7.36-35.33,13.25-43.67,22.57C4.91,88.38,0,100.64,0,113.89c0,10.13,2.1,18.43,6.96,26.11H140v-43.24Z"/></svg>