<?xml version="1.0" encoding="UTF-8"?><svg id="a" xmlns="http://www.w3.org/2000/svg" viewBox="0 0 140 140"><defs><style>.b{fill:#3f3b05;}</style></defs><path class="b" d="M39.64,140c-2.06-11.16-2.85-24.44-2.85-42.98,0-26.79,2.25-44.84,8.16-62.05C52.27,12.97,61,3.95,75.91,3.95c16.88,0,31.52,10.72,44.74,32.71,10.89,17.63,16.51,33.88,19.35,54.24V1.13h-.49c-.56,3.95-1.12,5.92-2.81,7.33-3.94,3.38-9.29,5.36-13.79,5.36-4.78,0-13.51-2.54-23.64-7.05C88.29,1.97,80.13,0,70.28,0,53.68,0,35.67,6.49,17.94,18.9,11.34,23.56,5.32,29.06,0,35.17v104.83H39.64Z"/></svg>